<?xml version="1.0" encoding="utf-8"?>
<!-- Generator: Adobe Illustrator 27.9.4, SVG Export Plug-In . SVG Version: 9.03 Build 54784)  -->
<svg version="1.1" id="Capa_1" xmlns="http://www.w3.org/2000/svg" xmlns:xlink="http://www.w3.org/1999/xlink" x="0px" y="0px"
	 viewBox="0 0 1920 1080" style="enable-background:new 0 0 1920 1080;" xml:space="preserve">
<style type="text/css">
	.st0{fill:#415AF8;}
</style>
<g>
	<path class="st0" d="M1135.74,273.54c-44.95,11.65-84.48,34.47-119.36,69.37c-6.49,6.48-12.54,13.15-18.21,19.99
		c30.84,51.35,46.64,110.05,46.64,177.11c0,67.05-15.81,125.76-46.66,177.12c-13.86,23.07-30.45,44.81-50.54,64.9
		c-54.17,54.17-119.15,85.39-194.64,94.26c-14.8,1.74-29.85,2.93-45.46,2.93c-93.38,0-173.43-32.41-238.22-97.2
		c-64.79-64.79-97.17-144.84-97.17-242.02c0-97.2,32.38-177.23,97.17-242.01c64.79-64.82,144.84-97.2,238.22-97.2
		c15.61,0,30.66,1.19,45.45,2.93c16.74-22.51,34.8-44.39,55.42-65c25.7-25.71,53.02-48.19,81.66-67.87
		c-56.46-21.15-117.31-32.04-182.53-32.04c-139.11,0-259.19,47.64-356.36,144.84c-97.2,97.17-144.84,215.34-144.84,356.36
		s47.64,259.16,144.84,356.36c97.17,97.17,217.25,144.82,356.36,144.82c65.23,0,126.09-10.9,182.54-32.04
		c63.95-23.95,122.2-61.16,173.82-112.77c28.12-28.12,51.77-58.22,71.87-89.89c49.36-77.8,74.86-166.25,74.86-266.47
		C1210.6,439.8,1185.1,351.34,1135.74,273.54"/>
	<path class="st0" d="M783.31,806.46c44.95-11.65,84.48-34.47,119.36-69.37c6.49-6.48,12.54-13.15,18.21-19.99
		c-30.84-51.35-46.64-110.05-46.64-177.11c0-67.05,15.81-125.76,46.66-177.12c13.86-23.07,30.45-44.81,50.54-64.9
		c54.17-54.17,119.15-85.39,194.64-94.26c14.8-1.74,29.85-2.93,45.46-2.93c93.38,0,173.43,32.41,238.22,97.2
		c64.79,64.79,97.17,144.84,97.17,242.02c0,97.2-32.38,177.23-97.17,242.01c-64.79,64.82-144.84,97.2-238.22,97.2
		c-15.61,0-30.66-1.19-45.45-2.93c-16.74,22.51-34.8,44.39-55.42,65c-25.7,25.71-53.02,48.19-81.66,67.87
		c56.46,21.15,117.31,32.04,182.53,32.04c139.11,0,259.19-47.64,356.36-144.84c97.2-97.17,144.84-215.34,144.84-356.36
		s-47.64-259.16-144.84-356.36c-97.17-97.17-217.25-144.82-356.36-144.82c-65.23,0-126.09,10.9-182.54,32.04
		c-63.95,23.95-122.2,61.16-173.82,112.77c-28.12,28.12-51.77,58.22-71.87,89.89c-49.36,77.8-74.86,166.25-74.86,266.47
		C708.45,640.2,733.95,728.66,783.31,806.46"/>
</g>
</svg>
